<svg width="183" height="32" viewBox="0 0 183 32" fill="none" xmlns="http://www.w3.org/2000/svg">
<path fill-rule="evenodd" clip-rule="evenodd" d="M9.39872 4.07207H7.9974C5.87824 4.07207 3.82783 5.45454 3.82783 9.46368C3.82783 13.3379 5.70839 14.5855 7.9974 14.5855H9.39872V4.07207ZM7.21182 16.7423L3.04124 25.9745H0L4.58006 16.1017C2.42652 15.0227 0.990829 13.0693 0.990829 9.46368C0.990829 4.40926 4.23832 1.88149 8.10053 1.88149H12.0315V25.9745H9.39872V16.7423H7.21182ZM59.4801 17.4325C59.4801 12.005 61.4526 8.53641 65.2693 8.53641C66.7252 8.53641 67.5644 8.94891 68.2762 9.42995L67.9203 11.9701C67.2419 11.3519 66.2713 10.7686 65.237 10.7686C63.4252 10.7686 62.132 12.9322 62.132 17.2943C62.132 21.6214 63.1026 24.0941 65.1399 24.0941C66.3683 24.0941 67.3066 23.5794 67.8879 23.0298L68.4703 25.0225C67.5978 25.8126 66.5625 26.3263 65.0752 26.3263C61.582 26.3263 59.4801 23.3389 59.4801 17.4325ZM52.1065 17.4662V26.0869H49.5819V8.77693H52.1055V16.7795L56.0182 8.77693H58.5731L54.5299 16.9166L59.1555 26.0869H56.4055L52.1055 17.4662H52.1065ZM40.2367 15.8522H44.4083C44.4083 12.8984 43.9554 10.7348 42.5005 10.7348C40.9475 10.7348 40.3975 12.7613 40.2357 15.8522H40.2367ZM43.0171 26.3274C39.6544 26.3274 37.5848 23.476 37.5848 18.1529C37.5848 12.5894 39.0407 8.53641 42.5005 8.53641C45.2172 8.53641 46.9956 10.7 46.9956 16.5727V18.0495H40.2044C40.2044 21.9653 41.2387 24.0267 43.2446 24.0267C44.6672 24.0267 45.7995 23.3389 46.4466 22.8578L47.028 24.9191C45.9937 25.7778 44.6348 26.3274 43.0181 26.3274H43.0171ZM32.2798 10.9405H29.467V11.2496C29.467 14.8901 29.3053 20.2143 27.9464 23.8885H32.2808V10.9405H32.2798ZM36.0641 29.4869H33.8004V26.0869H26.814V29.4869H24.5513V23.8896H25.5533C27.0415 20.2143 27.2033 14.8563 27.2033 10.2538V8.77693H34.771V23.8885H36.0652V29.4869H36.0641ZM23.0954 8.77693V26.0858H20.6052V18.3249H16.8542V26.0869H14.3306V8.77693H16.8542V16.1276H20.6052V8.77693H23.0954ZM86.5357 1.49935H79.5019V26.1487H77.8508V0H88.1878V26.1487H86.5357V1.50048V1.49935ZM96.5421 25.1248C97.5997 25.1248 98.4469 24.4246 99.0859 23.023C99.7239 21.6203 100.043 19.4567 100.043 16.531C100.043 14.0921 99.7684 12.2039 99.2173 10.8618C98.6673 9.521 97.908 8.84999 96.9384 8.84999C96.5643 8.84999 96.2064 8.95452 95.8657 9.16133C95.511 9.38018 95.1881 9.6576 94.9082 9.9841C94.611 10.3258 94.341 10.7213 94.0994 11.1732C93.8574 11.6233 93.6475 12.0939 93.4715 12.5804V22.8938C93.8011 23.6502 94.2096 24.2111 94.6929 24.5764C95.1782 24.9416 95.7949 25.1248 96.5431 25.1248H96.5421ZM96.443 26.478C95.8402 26.4872 95.2448 26.3301 94.7101 26.0206C94.2243 25.7455 93.8008 25.3516 93.4715 24.8685V31.8539H91.9196V7.71705H93.2734L93.4048 10.7517C93.7789 9.87503 94.2743 9.08827 94.8911 8.39367C95.5078 7.69794 96.2782 7.35064 97.2033 7.35064C97.8858 7.35064 98.5015 7.57093 99.0525 8.00928C99.6025 8.44762 100.066 9.06355 100.44 9.85589C100.814 10.6483 101.1 11.5991 101.298 12.7085C101.496 13.8179 101.595 15.043 101.595 16.3838C101.595 19.7737 101.122 22.3026 100.175 23.9728C99.2285 25.643 97.9849 26.4791 96.444 26.4791L96.443 26.478ZM107.838 25.1248C108.607 25.1248 109.263 24.7719 109.802 24.065C110.341 23.3568 110.765 22.5037 111.073 21.5046V16.4209H109.289C107.903 16.4209 106.879 16.7862 106.219 17.5179C105.559 18.2485 105.228 19.4197 105.228 21.0291C105.228 22.3453 105.465 23.3568 105.938 24.0638C106.411 24.7719 107.044 25.1248 107.837 25.1248H107.838ZM111.536 26.1487C111.455 25.8406 111.383 25.5294 111.321 25.2159C111.227 24.7035 111.166 24.1845 111.139 23.6625C110.743 24.5392 110.248 25.2349 109.652 25.7463C109.059 26.2588 108.343 26.5152 107.507 26.5152C106.385 26.5152 105.47 26.0453 104.766 25.1068C104.061 24.1683 103.708 22.8578 103.708 21.1752C103.708 19.2005 104.183 17.7067 105.129 16.6952C106.075 15.6836 107.451 15.1778 109.257 15.1778H111.073V12.8738C111.073 11.4587 110.842 10.4347 110.379 9.80085C109.917 9.16694 109.224 8.84999 108.3 8.84999C107.595 8.84999 106.935 9.02758 106.318 9.3805C105.701 9.73454 105.196 10.2279 104.798 10.8618L104.37 9.2164C104.699 8.72861 105.201 8.29476 105.872 7.91824C106.543 7.53947 107.352 7.35064 108.299 7.35064C109.686 7.35064 110.748 7.78336 111.486 8.64881C112.224 9.51425 112.593 10.8618 112.593 12.6905V22.7477C112.593 23.3816 112.625 24.0222 112.692 24.6673C112.757 25.3136 112.845 25.8082 112.955 26.1487H111.536ZM117.711 26.1487H116.158V7.71592H117.711V16.3838L123.292 7.71705H124.811L119.329 16.2748L125.207 26.1487H123.491L117.711 16.6041V26.1487ZM131.152 9.14335V26.1487H129.599V9.14335H125.736V7.71592H134.983V9.14335H131.151H131.152ZM145.121 13.3132C145.121 12.8242 145.132 12.3804 145.154 11.9768C145.177 11.5756 145.209 11.1788 145.253 10.7888H145.154C145.047 11.1946 144.915 11.5915 144.758 11.9768C144.596 12.3746 144.431 12.771 144.263 13.166L138.846 26.1487H137.526V7.71592H138.979V20.5177C138.983 21.3854 138.939 22.2524 138.847 23.1141H138.946C139.056 22.6982 139.188 22.2902 139.342 21.889C139.497 21.4866 139.661 21.0775 139.837 20.6638L145.253 7.71592H146.607V26.1487H145.121V13.3132ZM151.891 26.1487H150.339V7.71592H151.891V16.3838L157.472 7.71705H158.992L153.51 16.2748L159.388 26.1487H157.67L151.891 16.6041V26.1487ZM161.633 32C161.458 32 161.298 31.9944 161.154 31.982C161.027 31.9721 160.9 31.9536 160.775 31.9269L160.609 30.3186C160.741 30.3669 160.89 30.404 161.055 30.4276C161.221 30.4524 161.413 30.4647 161.633 30.4647C162.206 30.4647 162.69 30.1781 163.086 29.6049C163.483 29.0317 163.802 28.2337 164.044 27.2097L164.175 26.6613L160.048 7.71705H161.6L164.242 19.7489C164.397 20.457 164.528 21.1505 164.638 21.8339C164.75 22.5161 164.848 23.2107 164.936 23.9177H165.035C165.145 23.1872 165.266 22.479 165.399 21.7968C165.53 21.1145 165.674 20.4312 165.827 19.7489L168.403 7.71705H169.791L165.529 27.0985C165.398 27.7324 165.226 28.3427 165.017 28.9272C164.823 29.4821 164.562 30.005 164.241 30.4815C163.944 30.9212 163.574 31.2936 163.151 31.5785C162.734 31.8595 162.227 31.9989 161.632 31.9989L161.633 32ZM174.15 13.1289C174.018 12.6422 173.918 12.1847 173.852 11.7576C173.786 11.3306 173.698 10.8866 173.588 10.4236H173.457C173.5 10.9102 173.539 11.4047 173.572 11.9038C173.604 12.4039 173.622 12.9827 173.622 13.6414V26.1487H172.3V7.71592H174.117L177.023 18.9813C177.199 19.6389 177.32 20.1997 177.387 20.6627C177.452 21.1269 177.507 21.6024 177.551 22.0902H177.683C177.727 21.6024 177.788 21.1269 177.865 20.6627C177.942 20.1997 178.068 19.64 178.244 18.9813L181.216 7.71705H183V26.1499H181.514V13.6403C181.508 12.5535 181.552 11.4671 181.645 10.3853H181.514C181.426 10.8978 181.343 11.3732 181.266 11.8116C181.189 12.2499 181.095 12.6894 180.986 13.1277L178.212 23.9536H176.924L174.149 13.1277L174.15 13.1289Z" fill="black"/>
</svg>
