<svg width="16" height="16" viewBox="0 0 16 16" fill="none" xmlns="http://www.w3.org/2000/svg">
<path fill-rule="evenodd" clip-rule="evenodd" d="M7.7 0C3.28172 0 0 3.58172 0 8C0 12.4182 3.28172 16 7.7 16C12.1183 16 16 12.4182 16 8C16 3.58172 12.1183 0 7.7 0ZM8.15219 10.5252C8.07331 10.6083 7.9193 10.6251 7.9193 10.6251H7.40928C7.40928 10.6251 6.28407 10.6915 5.29282 9.67874C4.21185 8.57383 3.25733 6.3816 3.25733 6.3816C3.25733 6.3816 3.20224 6.2378 3.26192 6.16857C3.32912 6.09032 3.51234 6.0854 3.51234 6.0854L4.73147 6.07761C4.73147 6.07761 4.84624 6.09605 4.92846 6.15546C4.99649 6.20462 5.03447 6.29598 5.03447 6.29598C5.03447 6.29598 5.23147 6.78514 5.49232 7.22761C6.00193 8.09163 6.23899 8.28049 6.41178 8.1879C6.66387 8.05311 6.58833 6.96663 6.58833 6.96663C6.58833 6.96663 6.59292 6.57251 6.46145 6.39676C6.35961 6.26075 6.16762 6.221 6.0829 6.20994C6.01403 6.20093 6.12672 6.04443 6.2728 5.97438C6.49233 5.86909 6.87965 5.86294 7.3375 5.86745C7.69435 5.87114 7.79702 5.89285 7.93642 5.92604C8.25995 6.00267 8.24985 6.24827 8.22805 6.77832C8.22153 6.93684 8.21397 7.1208 8.21397 7.3333C8.21397 7.38105 8.21255 7.43195 8.21109 7.48432C8.20352 7.75587 8.19486 8.06683 8.37716 8.18257C8.47064 8.24157 8.69894 8.19118 9.27032 7.23907C9.5412 6.78759 9.744 6.25706 9.744 6.25706C9.744 6.25706 9.7887 6.16242 9.8576 6.12187C9.9281 6.08048 10.0232 6.09318 10.0232 6.09318L11.3062 6.0854C11.3062 6.0854 11.6919 6.03993 11.7541 6.21117C11.8196 6.39021 11.6101 6.80891 11.0859 7.49471C10.5903 8.14327 10.3482 8.38342 10.3686 8.5948C10.3836 8.75048 10.541 8.89053 10.8442 9.16664C11.4743 9.74091 11.6432 10.0431 11.6838 10.1156C11.6872 10.1217 11.6897 10.1261 11.6915 10.129C11.974 10.5891 11.378 10.6251 11.378 10.6251L10.2382 10.6407C10.2382 10.6407 9.9936 10.6882 9.6714 10.4711C9.5026 10.3574 9.33769 10.1718 9.1806 9.99502C8.9407 9.72503 8.71907 9.47561 8.52991 9.53453C8.2123 9.63367 8.2219 10.3052 8.2219 10.3052C8.2219 10.3052 8.2244 10.4489 8.15219 10.5252Z" fill="#4F4F4F"/>
</svg>
