<svg width="270" height="38" viewBox="0 0 270 38" fill="none" xmlns="http://www.w3.org/2000/svg">
<rect width="270" height="38" fill="white"/>
<path fill-rule="evenodd" clip-rule="evenodd" d="M65.7582 27.7945L57.6388 6H52.9901L51.4937 10.0331L57.9946 27.794C58.3889 28.9041 58.2696 29.9766 55.7491 29.9766V31.4572H68.4349V29.9766C67.3713 29.9766 66.3451 29.4226 65.7582 27.794V27.7945ZM82.0714 29.9076H82.9156V31.4572H70.0908V30.1225C70.5285 30.1128 70.9595 30.0149 71.3556 29.8349C71.6606 29.6596 71.9063 29.4029 72.0632 29.0957C72.22 28.7884 72.2813 28.444 72.2394 28.1039V17.2146C72.2394 15.9877 72.0475 15.6279 70.434 15.6651C70.1393 15.6609 69.8447 15.6721 69.5513 15.6985V14.4376C71.3177 13.8252 74.7758 12.8875 77.0003 12.8875C79.0737 12.8875 79.5724 13.5355 79.5724 15.1938V16.1681C81.3384 14.0051 83.2203 12.8875 85.3321 12.8875C87.291 12.8875 88.8254 14.0407 88.8254 16.0609C88.8533 16.4779 88.791 16.896 88.6427 17.2885C88.4942 17.6811 88.2629 18.0395 87.9633 18.3412C87.6637 18.6429 87.3023 18.8812 86.9022 19.041C86.5021 19.2008 86.0719 19.2785 85.639 19.2693C83.1818 19.2693 83.4122 16.746 81.2229 16.746C80.6421 16.773 80.0764 16.9336 79.573 17.2146V28.1039C79.5752 29.1509 80.4199 29.9081 82.0714 29.9081V29.9076ZM91.6236 13.4293H108.018L108.671 14.4376L98.6117 29.4735H101.796C103.062 29.4488 104.287 29.0327 105.289 28.2863C106.292 27.54 107.019 26.5028 107.365 25.3274L108.671 25.4723L107.827 31.4572H90.4714L89.8956 30.52L99.9563 15.4114H97.1132C93.9284 15.4114 92.5826 17.3218 91.7786 19.307L90.3591 19.1261L91.6236 13.4293ZM131.092 29.7994C131.321 29.8178 131.551 29.8178 131.78 29.7994L131.818 30.6293C130.093 31.5184 128.17 31.9887 126.214 31.9995C122.645 31.9995 121.875 30.5205 121.875 28.4297V28.0328C120.61 30.0525 118.651 31.9634 115.579 31.9634C112.66 31.9634 110.971 30.2324 110.971 27.6719C110.971 24.2459 113.966 23.0933 117.883 22.3361L121.875 21.5793V20.9293C121.875 18.8018 121.032 17.3961 118.15 17.3961C115.974 17.4789 113.812 17.7813 111.7 18.2982V15.7383C114.965 14.0799 118.651 12.8902 121.76 12.8902C127.21 12.8902 129.211 15.7027 129.211 20.4994V27.5647C129.211 29.3302 129.629 29.7988 131.092 29.7988V29.7994ZM121.875 27.1673V23.0206L119.88 23.4903C118.536 23.815 117.537 24.3547 117.537 25.6533C117.537 27.0595 118.727 27.5281 119.88 27.5281C120.561 27.5127 121.235 27.3906 121.875 27.1667V27.1673ZM143.818 29.7994C144.199 29.993 144.62 30.1037 145.05 30.1236V31.4582H133.413V30.1236C133.853 30.1143 134.285 30.0164 134.683 29.836C134.988 29.6605 135.233 29.4035 135.389 29.0963C135.546 28.789 135.606 28.4447 135.563 28.1049V17.2157C135.563 16.0248 135.371 15.6661 133.952 15.6661C133.644 15.6661 133.298 15.6661 132.88 15.6995V14.4376C134.645 13.8252 138.099 12.8875 140.326 12.8875C142.399 12.8875 142.9 13.5355 142.9 15.1938V16.529C144.935 14.4376 147.47 12.8875 150.385 12.8875C153.651 12.8875 155.378 14.1489 155.989 16.7083C158.101 14.5443 160.641 12.8875 163.671 12.8875C167.934 12.8875 169.583 15.015 169.583 19.4853V28.1039C169.553 28.4414 169.623 28.7803 169.786 29.0806C169.948 29.3808 170.197 29.6298 170.501 29.7983C170.883 29.9913 171.304 30.1019 171.733 30.1225V31.4572H160.096V30.1225C160.536 30.1133 160.969 30.0153 161.367 29.8349C161.671 29.6594 161.917 29.4025 162.073 29.0952C162.229 28.788 162.29 28.4436 162.247 28.1039V21.4705C162.247 18.6952 161.791 16.7842 158.832 16.7842C157.894 16.7642 156.963 16.9489 156.11 17.3244C156.234 18.0392 156.299 18.7626 156.302 19.4874V28.106C156.27 28.4437 156.34 28.783 156.503 29.0835C156.666 29.3839 156.915 29.6328 157.221 29.8004C157.6 29.9941 158.018 30.1048 158.447 30.1247V31.4593H146.816V30.1247C147.253 30.1154 147.684 30.0174 148.081 29.837C148.386 29.662 148.632 29.4053 148.789 29.0981C148.946 28.7909 149.007 28.4462 148.966 28.106V21.4727C148.966 18.6973 148.503 16.7864 145.545 16.7864C144.636 16.7716 143.735 16.9433 142.9 17.29V28.1081C142.87 28.4451 142.941 28.7832 143.103 29.0827C143.266 29.3822 143.514 29.6307 143.818 29.7988V29.7994ZM193.787 29.7994C194.016 29.8178 194.245 29.8178 194.474 29.7994L194.513 30.6293C192.788 31.5184 190.865 31.9887 188.909 31.9995C185.339 31.9995 184.569 30.5205 184.569 28.4297V28.0328C183.305 30.0525 181.342 31.9634 178.272 31.9634C175.358 31.9634 173.664 30.2324 173.664 27.6719C173.664 24.2459 176.661 23.0933 180.577 22.3361L184.569 21.5793V20.9293C184.569 18.8018 183.722 17.3961 180.846 17.3961C178.669 17.4791 176.507 17.7815 174.395 18.2982V15.7383C177.657 14.0799 181.342 12.8902 184.454 12.8902C189.909 12.8902 191.906 15.7027 191.906 20.4994V27.5647C191.906 29.3302 192.329 29.7988 193.787 29.7988V29.7994ZM184.569 27.1673V23.0206L182.573 23.4903C181.231 23.815 180.23 24.3547 180.23 25.6533C180.23 27.0595 181.424 27.5281 182.573 27.5281C183.255 27.5128 183.929 27.3907 184.569 27.1667V27.1673ZM196.273 30.736L196.157 25.5445L197.73 25.3635C199.11 28.176 201.068 30.0525 203.719 30.0525C205.561 30.0525 206.6 29.0442 206.6 27.8529C206.6 26.5904 205.33 26.0486 203.719 25.6533L201.991 25.2208C199.379 24.5712 196.465 22.8413 196.465 19.523C196.465 15.5924 200.457 12.8896 205.907 12.8896C208.091 12.8489 210.251 13.3191 212.204 14.2598L212.589 18.8766L210.747 18.9828C209.059 15.8089 207.288 14.8351 205.407 14.8351C203.757 14.8351 202.91 15.8089 202.91 16.9631C202.91 18.3693 204.027 19.0194 205.522 19.3803L207.634 19.8833C210.17 20.4984 213.243 21.7226 213.243 25.2213C213.243 29.9803 207.673 32 203.031 32C200.717 31.9868 198.425 31.558 196.273 30.7355V30.736ZM219.123 25.744C217.275 25.744 215.24 24.8774 215.24 22.4624C215.24 20.0473 217.275 19.1452 219.123 19.1452C220.921 19.1452 223 20.0473 223 22.4624C223 24.8774 220.921 25.7435 219.123 25.7435V25.744ZM50.6181 26.1229C48.7747 26.1229 47 25.2563 47 22.8413C47 20.4262 48.7747 19.5235 50.6181 19.5235C52.4203 19.5235 54.2528 20.4257 54.2528 22.8413C54.2528 25.2568 52.4176 26.1224 50.6154 26.1224L50.6181 26.1229Z" fill="#BDBDBD"/>
</svg>
