<svg width="270" height="38" viewBox="0 0 270 38" fill="none" xmlns="http://www.w3.org/2000/svg">
<rect width="270" height="38" fill="white"/>
<path d="M73.1315 12.2312L73.5389 11.8233C73.5389 6.92853 69.6274 3.46143 64.5343 3.46143C59.4412 3.46143 55.6112 6.92853 55.6112 11.4154C55.6112 16.3101 58.667 18.9614 62.5378 20.2259C63.5564 20.5522 64.8195 20.9193 65.7974 21.1641C67.7939 21.6535 70.0756 22.8364 70.0756 25.6917C70.0756 28.343 68.2421 30.1785 64.7788 30.1785C61.9674 30.1785 59.1967 28.1391 59.2782 24.468L58.8708 24.0601L55.2037 25.2838L55 25.6917C55.0815 30.2601 59.2375 34.4614 64.7788 34.4614C71.0942 34.4614 74.3538 29.9746 74.3538 25.6917C74.3538 20.797 71.2979 18.2272 67.4272 17.1667L64.1676 16.2285C60.9895 15.2904 59.8894 13.8627 59.8894 11.4154C59.8894 9.21274 61.7229 7.54037 64.575 7.54037C67.4272 7.54037 69.2607 9.57985 69.2607 11.8233L69.6682 12.2312H73.1315Z" fill="#BDBDBD"/>
<path d="M78.8486 7.74429L79.256 8.15219H85.8567V33.4417L86.2641 33.8496H89.7682L90.1756 33.4417V8.15219H96.7763L97.1838 7.74429V4.48113L96.7763 4.07324H79.256L78.8486 4.48113V7.74429Z" fill="#BDBDBD"/>
<path d="M102.493 33.4417L102.901 33.8496H106.364L106.771 33.4417V20.593H107.383L116.754 33.4417L117.161 33.8496H121.643V33.0338L112.231 20.5522C116.754 20.3891 121.032 17.3706 121.032 12.4351C121.032 7.13245 116.754 4.07324 111.865 4.07324H102.901L102.493 4.48113V33.4417ZM106.771 16.718V8.15219H112.068C114.513 8.15219 116.754 9.57982 116.754 12.4351C116.754 15.2904 114.513 16.718 112.068 16.718H106.771Z" fill="#BDBDBD"/>
<path d="M125.73 33.4417L126.138 33.8496H143.251L143.658 33.4417V30.1785L143.251 29.7706H130.009V20.797H142.843L143.251 20.3891V17.1259L142.843 16.718H130.009V8.15219H143.251L143.658 7.74429V4.48113L143.251 4.07324H126.138L125.73 4.48113V33.4417Z" fill="#BDBDBD"/>
<path d="M148.968 33.4417L149.375 33.8496H166.488L166.896 33.4417V30.1785L166.488 29.7706H153.246V4.48113L152.839 4.07324H149.375L148.968 4.48113V33.4417Z" fill="#BDBDBD"/>
<path d="M186.058 4.07324L185.651 4.48113L176.483 16.3101V4.48113L176.117 4.07324H172.613L172.205 4.48113V33.4417L172.613 33.8496H176.076L176.483 33.4417V21.2048L186.058 33.4417L186.466 33.8496H191.152L191.355 33.4417L179.539 18.5535L190.948 4.48113L190.744 4.07324H186.058Z" fill="#BDBDBD"/>
<path d="M193.405 33.4417L193.609 33.8496H197.48L197.887 33.4417L199.639 26.5075H208.766L210.518 33.4417L210.925 33.8496H214.796L215 33.4417L206.851 4.48113L206.444 4.07324H201.962L201.554 4.48113L193.405 33.4417ZM204.203 9.37587L207.666 22.4285H200.739L204.203 9.37587Z" fill="#BDBDBD"/>
</svg>
