<svg width="270" height="38" viewBox="0 0 270 38" fill="none" xmlns="http://www.w3.org/2000/svg">
<rect width="270" height="38" fill="white"/>
<path fill-rule="evenodd" clip-rule="evenodd" d="M108.769 6.68119C105.672 3.61779 101.462 1.72325 96.8771 1.72325C92.2927 1.72325 88.0839 3.6187 84.985 6.68119C81.8129 9.81771 79.8507 14.1592 79.8507 18.961C79.8507 23.7628 81.8137 28.1042 84.9886 31.2408C88.0857 34.3042 92.2936 36.1987 96.8806 36.1987C101.464 36.1987 105.673 34.3032 108.773 31.2408C111.946 28.1033 113.909 23.7619 113.909 18.961C113.909 14.1592 111.946 9.81771 108.771 6.68119H108.769ZM96.8771 1.17989C102.075 1.17989 106.722 3.20531 110.033 6.47992C113.271 9.67871 115.273 14.0924 115.273 18.961C115.273 23.8296 113.269 28.2432 110.032 31.4438C106.72 34.7166 102.073 36.7421 96.8762 36.7421C91.6787 36.7421 87.0311 34.7166 83.7199 31.4438C80.4828 28.2432 78.4809 23.8296 78.4809 18.961C78.4809 14.0924 80.4828 9.67871 83.7199 6.47992C87.0329 3.20531 91.6796 1.17989 96.8771 1.17989ZM96.8771 17.5439C97.6653 17.5439 98.3038 18.1784 98.3038 18.961C98.3038 19.7435 97.6653 20.378 96.8771 20.378C96.0915 20.378 95.4531 19.7435 95.4531 18.961C95.4531 18.1784 96.0897 17.5439 96.8771 17.5439ZM200.194 26.2539H219.47L209.833 2.78831L200.194 26.2539H200.194ZM221.201 36.0254H223.481L219.692 26.7973H199.969L196.177 36.0254H199.141V36.5688H192.342V36.0254H195.53L199.32 26.7973H196.984V26.2539H199.544L210.14 0.461426L224.747 36.0254H228V36.5688H221.201V36.0254ZM162.113 14.7278H164.482C165.444 14.7278 166.55 14.7278 167.498 14.1772C168.008 13.8794 168.494 13.4353 168.939 12.9073C169.443 12.308 169.886 11.6003 170.247 10.8746C170.598 10.1769 170.862 9.47562 171.079 8.79326C171.295 8.1091 171.469 7.42583 171.626 6.78319L171.677 6.57379C171.971 5.36792 172.227 4.3173 172.791 3.50497C173.082 3.08526 173.454 2.73055 173.869 2.43991C174.344 2.10866 174.882 1.85864 175.424 1.69076C175.973 1.52197 176.518 1.43803 177.061 1.39561H177.063C177.579 1.3559 178.058 1.3559 178.536 1.3559V1.89926C178.118 1.89926 177.7 1.89926 177.32 1.92814C176.964 1.95522 176.607 2.01118 176.253 2.12039C175.847 2.24676 175.434 2.44172 175.051 2.70708C174.69 2.96251 174.36 3.27571 174.1 3.65029C173.568 4.41749 173.314 5.44645 173.029 6.62614L172.977 6.83554C172.821 7.47277 172.648 8.15333 172.424 8.86096C172.198 9.5704 171.929 10.2889 171.584 10.9821C171.214 11.724 170.754 12.4533 170.226 13.0824C169.741 13.6573 169.2 14.1474 168.618 14.485C168.46 14.5753 168.299 14.6565 168.138 14.7287H169.507C171.14 14.7287 173.016 14.7287 174.682 15.9833C175.404 16.5294 176.077 17.3246 176.683 18.2615C177.351 19.2949 177.936 20.4963 178.404 21.7157C178.846 22.8674 179.189 24.0534 179.473 25.2205C179.761 26.4029 179.981 27.5239 180.18 28.5736L180.245 28.922C180.615 30.8915 180.937 32.6073 181.626 33.8989C181.947 34.4964 182.348 35.0064 182.767 35.4288C183.284 35.9487 183.825 36.3278 184.27 36.5688C184.618 36.7583 184.882 36.8468 185.101 36.8874C185.275 36.9181 185.479 36.9181 185.681 36.9181V37.4614C185.331 37.4614 184.981 37.4614 184.53 37.3784C184.12 37.3035 183.677 37.1618 183.17 36.8883C182.665 36.6157 182.06 36.1933 181.498 35.6283C181.055 35.1833 180.631 34.6444 180.293 34.0108C179.582 32.684 179.257 30.951 178.885 28.9626L178.818 28.6142C178.616 27.5401 178.394 26.3992 178.118 25.271C177.841 24.1292 177.501 22.9577 177.055 21.7978C176.59 20.5829 176.016 19.3987 175.367 18.395C174.789 17.5015 174.151 16.7469 173.478 16.2379C172.196 15.2721 170.76 15.2721 169.509 15.2721H165.614V15.254C165.226 15.2721 164.848 15.2721 164.482 15.2721H162.113V36.0281H164.831V36.5715H158.03V36.0281H160.748V1.89835H158.03V1.35319H164.83V1.89655H162.113V14.7278ZM145.609 36.0254H147.893L134.24 2.78831L120.587 36.0254H123.554V36.5688H116.754V36.0254H119.942L134.553 0.461426L149.16 36.0254H152.412V36.5688H145.613V36.0254H145.609ZM71.5389 1.89655V36.0254H74.2568V36.5688H67.4574V36.0254H70.1708V1.89655H46.0832V36.2971H44.7179V1.89655H42V1.35319H74.2559V1.89655H71.5389Z" fill="#BDBDBD"/>
</svg>
